<svg width="371" height="145" viewBox="0 0 371 145" fill="none" xmlns="http://www.w3.org/2000/svg">
<g filter="url(#filter0_dd)">
<rect x="16" y="16" width="339" height="113" rx="17" fill="#08133A"/>
</g>
<g clip-path="url(#clip0)">
<path d="M94.6863 45.1055L72.1991 61.7444L76.3808 51.9385L94.6863 45.1055Z" fill="#E17726" stroke="#E17726" stroke-width="0.25" stroke-linecap="round" stroke-linejoin="round"/>
<path d="M42.8167 45.1055L65.1036 61.8997L61.1222 51.9385L42.8167 45.1055Z" fill="#E27625" stroke="#E27625" stroke-width="0.25" stroke-linecap="round" stroke-linejoin="round"/>
<path d="M86.5894 83.6855L80.6062 92.8259L93.4178 96.3534L97.0879 83.8854L86.5894 83.6855Z" fill="#E27625" stroke="#E27625" stroke-width="0.25" stroke-linecap="round" stroke-linejoin="round"/>
<path d="M40.4366 83.8854L44.0844 96.3534L56.8738 92.8259L50.9128 83.6855L40.4366 83.8854Z" fill="#E27625" stroke="#E27625" stroke-width="0.25" stroke-linecap="round" stroke-linejoin="round"/>
<path d="M56.1841 68.2451L52.6254 73.614L65.3035 74.1908L64.881 60.5469L56.1841 68.2451Z" fill="#E27625" stroke="#E27625" stroke-width="0.25" stroke-linecap="round" stroke-linejoin="round"/>
<path d="M81.3179 68.2451L72.4878 60.3916L72.1986 74.1908L84.8767 73.614L81.3179 68.2451Z" fill="#E27625" stroke="#E27625" stroke-width="0.25" stroke-linecap="round" stroke-linejoin="round"/>
<path d="M56.8739 92.8255L64.5475 89.1206L57.9416 83.9736L56.8739 92.8255Z" fill="#E27625" stroke="#E27625" stroke-width="0.25" stroke-linecap="round" stroke-linejoin="round"/>
<path d="M72.9552 89.1206L80.6065 92.8255L79.5611 83.9736L72.9552 89.1206Z" fill="#E27625" stroke="#E27625" stroke-width="0.25" stroke-linecap="round" stroke-linejoin="round"/>
<path d="M80.6065 92.826L72.9552 89.1211L73.5779 94.0905L73.5111 96.1982L80.6065 92.826Z" fill="#D5BFB2" stroke="#D5BFB2" stroke-width="0.25" stroke-linecap="round" stroke-linejoin="round"/>
<path d="M56.8739 92.826L63.9915 96.1982L63.947 94.0905L64.5475 89.1211L56.8739 92.826Z" fill="#D5BFB2" stroke="#D5BFB2" stroke-width="0.25" stroke-linecap="round" stroke-linejoin="round"/>
<path d="M64.1248 80.6904L57.7634 78.827L62.2564 76.7637L64.1248 80.6904Z" fill="#233447" stroke="#233447" stroke-width="0.25" stroke-linecap="round" stroke-linejoin="round"/>
<path d="M73.3778 80.6904L75.2462 76.7637L79.7615 78.827L73.3778 80.6904Z" fill="#233447" stroke="#233447" stroke-width="0.25" stroke-linecap="round" stroke-linejoin="round"/>
<path d="M56.8738 92.8259L57.986 83.6855L50.9128 83.8854L56.8738 92.8259Z" fill="#CC6228" stroke="#CC6228" stroke-width="0.25" stroke-linecap="round" stroke-linejoin="round"/>
<path d="M79.5165 83.6855L80.6064 92.8259L86.5896 83.8854L79.5165 83.6855Z" fill="#CC6228" stroke="#CC6228" stroke-width="0.25" stroke-linecap="round" stroke-linejoin="round"/>
<path d="M84.8767 73.6133L72.1986 74.1901L73.3774 80.6905L75.2458 76.7636L79.761 78.8269L84.8767 73.6133Z" fill="#CC6228" stroke="#CC6228" stroke-width="0.25" stroke-linecap="round" stroke-linejoin="round"/>
<path d="M57.7634 78.8269L62.2563 76.7636L64.1247 80.6905L65.3035 74.1901L52.6254 73.6133L57.7634 78.8269Z" fill="#CC6228" stroke="#CC6228" stroke-width="0.25" stroke-linecap="round" stroke-linejoin="round"/>
<path d="M52.6259 73.6133L57.9418 83.9738L57.7638 78.8269L52.6259 73.6133Z" fill="#E27525" stroke="#E27525" stroke-width="0.25" stroke-linecap="round" stroke-linejoin="round"/>
<path d="M79.7614 78.8269L79.5613 83.9738L84.8773 73.6133L79.7614 78.8269Z" fill="#E27525" stroke="#E27525" stroke-width="0.25" stroke-linecap="round" stroke-linejoin="round"/>
<path d="M65.3043 74.1904L64.1254 80.6908L65.6156 88.3668L65.9493 78.2504L65.3043 74.1904Z" fill="#E27525" stroke="#E27525" stroke-width="0.25" stroke-linecap="round" stroke-linejoin="round"/>
<path d="M72.199 74.1904L71.5762 78.2283L71.8876 88.3668L73.3778 80.6908L72.199 74.1904Z" fill="#E27525" stroke="#E27525" stroke-width="0.25" stroke-linecap="round" stroke-linejoin="round"/>
<path d="M73.3778 80.6908L71.8876 88.3667L72.9553 89.1211L79.5613 83.9741L79.7614 78.8271L73.3778 80.6908Z" fill="#F5841F" stroke="#F5841F" stroke-width="0.25" stroke-linecap="round" stroke-linejoin="round"/>
<path d="M57.7634 78.8271L57.9415 83.9741L64.5474 89.1211L65.615 88.3667L64.1248 80.6908L57.7634 78.8271Z" fill="#F5841F" stroke="#F5841F" stroke-width="0.25" stroke-linecap="round" stroke-linejoin="round"/>
<path d="M73.5113 96.1984L73.5779 94.0907L72.9997 93.6026H64.5031L63.947 94.0907L63.9915 96.1984L56.8739 92.8262L59.365 94.8672L64.4141 98.3503H73.0663L78.1376 94.8672L80.6065 92.8262L73.5113 96.1984Z" fill="#C0AC9D" stroke="#C0AC9D" stroke-width="0.25" stroke-linecap="round" stroke-linejoin="round"/>
<path d="M72.9551 89.1214L71.8874 88.3672H65.615L64.5475 89.1214L63.9469 94.091L64.503 93.6029H72.9996L73.5779 94.091L72.9551 89.1214Z" fill="#161616" stroke="#161616" stroke-width="0.25" stroke-linecap="round" stroke-linejoin="round"/>
<path d="M95.6424 62.8314L97.5331 53.6468L94.686 45.1055L72.9552 61.1898L81.3182 68.2446L93.129 71.6834L95.7314 68.6441L94.5971 67.8231L96.3986 66.1815L95.0197 65.1166L96.8213 63.741L95.6424 62.8314Z" fill="#763E1A" stroke="#763E1A" stroke-width="0.25" stroke-linecap="round" stroke-linejoin="round"/>
<path d="M39.9697 53.6468L41.8826 62.8314L40.6592 63.741L42.4831 65.1166L41.1041 66.1815L42.9057 67.8231L41.7714 68.6441L44.3737 71.6834L56.1845 68.2446L64.5476 61.1898L42.8168 45.1055L39.9697 53.6468Z" fill="#763E1A" stroke="#763E1A" stroke-width="0.25" stroke-linecap="round" stroke-linejoin="round"/>
<path d="M93.1292 71.6837L81.3184 68.2451L84.8772 73.614L79.5613 83.9744L86.5899 83.8857H97.0883L93.1292 71.6837Z" fill="#F5841F" stroke="#F5841F" stroke-width="0.25" stroke-linecap="round" stroke-linejoin="round"/>
<path d="M56.1842 68.2451L44.3735 71.6837L40.4366 83.8857H50.9128L57.9414 83.9744L52.6255 73.614L56.1842 68.2451Z" fill="#F5841F" stroke="#F5841F" stroke-width="0.25" stroke-linecap="round" stroke-linejoin="round"/>
<path d="M72.1988 74.1903L72.9551 61.1896L76.3803 51.9385H61.1221L64.5473 61.1896L65.3036 74.1903L65.5928 78.2723L65.615 88.3666H71.8874L71.9096 78.2723L72.1988 74.1903Z" fill="#F5841F" stroke="#F5841F" stroke-width="0.25" stroke-linecap="round" stroke-linejoin="round"/>
<path d="M135.229 66.548H137.053V78.29H143.228V80H135.229V66.548ZM146.032 75.497C146.032 75.953 146.101 76.3773 146.241 76.77C146.38 77.15 146.576 77.4793 146.83 77.758C147.083 78.024 147.393 78.2393 147.761 78.404C148.128 78.556 148.54 78.632 148.996 78.632C149.452 78.632 149.863 78.556 150.231 78.404C150.598 78.2393 150.908 78.024 151.162 77.758C151.415 77.4793 151.611 77.15 151.751 76.77C151.89 76.3773 151.96 75.953 151.96 75.497C151.96 75.041 151.89 74.623 151.751 74.243C151.611 73.8503 151.415 73.521 151.162 73.255C150.908 72.9763 150.598 72.761 150.231 72.609C149.863 72.4443 149.452 72.362 148.996 72.362C148.54 72.362 148.128 72.4443 147.761 72.609C147.393 72.761 147.083 72.9763 146.83 73.255C146.576 73.521 146.38 73.8503 146.241 74.243C146.101 74.623 146.032 75.041 146.032 75.497ZM144.208 75.497C144.208 74.8383 144.328 74.224 144.569 73.654C144.822 73.084 145.164 72.5837 145.595 72.153C146.025 71.7223 146.532 71.3867 147.115 71.146C147.697 70.8927 148.324 70.766 148.996 70.766C149.667 70.766 150.294 70.8927 150.877 71.146C151.459 71.3867 151.966 71.7223 152.397 72.153C152.827 72.5837 153.163 73.084 153.404 73.654C153.657 74.224 153.784 74.8383 153.784 75.497C153.784 76.1557 153.657 76.7763 153.404 77.359C153.163 77.929 152.827 78.4293 152.397 78.86C151.966 79.278 151.459 79.6137 150.877 79.867C150.294 80.1077 149.667 80.228 148.996 80.228C148.324 80.228 147.697 80.1077 147.115 79.867C146.532 79.6137 146.025 79.278 145.595 78.86C145.164 78.4293 144.822 77.929 144.569 77.359C144.328 76.7763 144.208 76.1557 144.208 75.497ZM164.951 79.924C164.951 80.608 164.83 81.2287 164.59 81.786C164.362 82.356 164.032 82.8437 163.602 83.249C163.171 83.667 162.652 83.99 162.044 84.218C161.436 84.446 160.764 84.56 160.03 84.56C159.168 84.56 158.377 84.4397 157.655 84.199C156.945 83.9583 156.268 83.5403 155.622 82.945L156.781 81.501C157.224 81.9823 157.705 82.3433 158.225 82.584C158.744 82.8373 159.333 82.964 159.992 82.964C160.625 82.964 161.151 82.869 161.569 82.679C161.987 82.5017 162.316 82.2673 162.557 81.976C162.81 81.6847 162.987 81.349 163.089 80.969C163.19 80.6017 163.241 80.228 163.241 79.848V78.518H163.184C162.854 79.0627 162.405 79.468 161.835 79.734C161.277 79.9873 160.688 80.114 160.068 80.114C159.409 80.114 158.795 80 158.225 79.772C157.667 79.5313 157.186 79.2083 156.781 78.803C156.375 78.385 156.059 77.8973 155.831 77.34C155.603 76.77 155.489 76.1557 155.489 75.497C155.489 74.8383 155.596 74.224 155.812 73.654C156.027 73.0713 156.331 72.5647 156.724 72.134C157.129 71.7033 157.61 71.3677 158.168 71.127C158.738 70.8863 159.371 70.766 160.068 70.766C160.676 70.766 161.265 70.899 161.835 71.165C162.417 71.431 162.873 71.8047 163.203 72.286H163.241V70.994H164.951V79.924ZM160.277 72.362C159.821 72.362 159.409 72.4443 159.042 72.609C158.674 72.761 158.364 72.9763 158.111 73.255C157.857 73.521 157.661 73.8503 157.522 74.243C157.382 74.623 157.313 75.041 157.313 75.497C157.313 76.409 157.579 77.1437 158.111 77.701C158.643 78.2457 159.365 78.518 160.277 78.518C161.189 78.518 161.911 78.2457 162.443 77.701C162.975 77.1437 163.241 76.409 163.241 75.497C163.241 75.041 163.171 74.623 163.032 74.243C162.892 73.8503 162.696 73.521 162.443 73.255C162.189 72.9763 161.879 72.761 161.512 72.609C161.144 72.4443 160.733 72.362 160.277 72.362ZM167.674 70.994H169.384V80H167.674V70.994ZM167.275 67.764C167.275 67.422 167.395 67.1307 167.636 66.89C167.889 66.6367 168.187 66.51 168.529 66.51C168.871 66.51 169.162 66.6367 169.403 66.89C169.656 67.1307 169.783 67.422 169.783 67.764C169.783 68.106 169.656 68.4037 169.403 68.657C169.162 68.8977 168.871 69.018 168.529 69.018C168.187 69.018 167.889 68.8977 167.636 68.657C167.395 68.4037 167.275 68.106 167.275 67.764ZM172.105 70.994H173.815V72.381H173.853C174.069 71.8997 174.442 71.5133 174.974 71.222C175.506 70.918 176.121 70.766 176.817 70.766C177.248 70.766 177.66 70.8357 178.052 70.975C178.458 71.1017 178.806 71.3043 179.097 71.583C179.401 71.8617 179.642 72.2227 179.819 72.666C179.997 73.0967 180.085 73.6097 180.085 74.205V80H178.375V74.68C178.375 74.262 178.318 73.9073 178.204 73.616C178.09 73.312 177.938 73.0713 177.748 72.894C177.558 72.704 177.337 72.571 177.083 72.495C176.843 72.4063 176.589 72.362 176.323 72.362C175.969 72.362 175.639 72.419 175.335 72.533C175.031 72.647 174.765 72.8307 174.537 73.084C174.309 73.3247 174.132 73.635 174.005 74.015C173.879 74.395 173.815 74.8447 173.815 75.364V80H172.105V70.994ZM186.678 66.548H188.578L191.542 77.302H191.58L194.753 66.548H196.843L200.016 77.302H200.054L203.018 66.548H204.918L201.004 80H199.085L195.817 69.018H195.779L192.53 80H190.611L186.678 66.548ZM206.361 70.994H208.071V80H206.361V70.994ZM205.962 67.764C205.962 67.422 206.082 67.1307 206.323 66.89C206.576 66.6367 206.874 66.51 207.216 66.51C207.558 66.51 207.849 66.6367 208.09 66.89C208.343 67.1307 208.47 67.422 208.47 67.764C208.47 68.106 208.343 68.4037 208.09 68.657C207.849 68.8977 207.558 69.018 207.216 69.018C206.874 69.018 206.576 68.8977 206.323 68.657C206.082 68.4037 205.962 68.106 205.962 67.764ZM215.618 72.476H213.167V76.561C213.167 76.8143 213.173 77.0677 213.186 77.321C213.199 77.5617 213.243 77.7833 213.319 77.986C213.408 78.176 213.534 78.3343 213.699 78.461C213.876 78.575 214.13 78.632 214.459 78.632C214.662 78.632 214.871 78.613 215.086 78.575C215.301 78.537 215.498 78.4673 215.675 78.366V79.924C215.472 80.038 215.206 80.114 214.877 80.152C214.56 80.2027 214.313 80.228 214.136 80.228C213.477 80.228 212.964 80.1393 212.597 79.962C212.242 79.772 211.976 79.5313 211.799 79.24C211.634 78.9487 211.533 78.6257 211.495 78.271C211.47 77.9037 211.457 77.5363 211.457 77.169V72.476H209.481V70.994H211.457V68.467H213.167V70.994H215.618V72.476ZM217.824 65.636H219.534V72.381H219.572C219.788 71.8997 220.161 71.5133 220.693 71.222C221.225 70.918 221.84 70.766 222.536 70.766C222.967 70.766 223.379 70.8357 223.771 70.975C224.177 71.1017 224.525 71.3043 224.816 71.583C225.12 71.8617 225.361 72.2227 225.538 72.666C225.716 73.0967 225.804 73.6097 225.804 74.205V80H224.094V74.68C224.094 74.262 224.037 73.9073 223.923 73.616C223.809 73.312 223.657 73.0713 223.467 72.894C223.277 72.704 223.056 72.571 222.802 72.495C222.562 72.4063 222.308 72.362 222.042 72.362C221.688 72.362 221.358 72.419 221.054 72.533C220.75 72.647 220.484 72.8307 220.256 73.084C220.028 73.3247 219.851 73.635 219.724 74.015C219.598 74.395 219.534 74.8447 219.534 75.364V80H217.824V65.636ZM233.974 66.548H236.691L240.966 76.732H241.042L245.279 66.548H247.996V80H246.172V68.942H246.134L241.593 80H240.377L235.836 68.942H235.798V80H233.974V66.548ZM252.181 76.124C252.181 76.5167 252.263 76.8777 252.428 77.207C252.605 77.5237 252.833 77.796 253.112 78.024C253.39 78.252 253.713 78.4293 254.081 78.556C254.448 78.6827 254.828 78.746 255.221 78.746C255.753 78.746 256.215 78.6257 256.608 78.385C257 78.1317 257.361 77.8023 257.691 77.397L258.983 78.385C258.033 79.6137 256.703 80.228 254.993 80.228C254.283 80.228 253.637 80.1077 253.055 79.867C252.485 79.6263 251.997 79.297 251.592 78.879C251.199 78.4483 250.895 77.948 250.68 77.378C250.464 76.7953 250.357 76.1683 250.357 75.497C250.357 74.8257 250.471 74.205 250.699 73.635C250.939 73.0523 251.262 72.552 251.668 72.134C252.086 71.7033 252.58 71.3677 253.15 71.127C253.72 70.8863 254.34 70.766 255.012 70.766C255.81 70.766 256.481 70.9053 257.026 71.184C257.583 71.4627 258.039 71.83 258.394 72.286C258.748 72.7293 259.002 73.236 259.154 73.806C259.318 74.3633 259.401 74.9333 259.401 75.516V76.124H252.181ZM257.577 74.756C257.564 74.376 257.501 74.0277 257.387 73.711C257.285 73.3943 257.127 73.122 256.912 72.894C256.696 72.6533 256.424 72.4697 256.095 72.343C255.778 72.2037 255.404 72.134 254.974 72.134C254.556 72.134 254.169 72.2163 253.815 72.381C253.473 72.533 253.181 72.7357 252.941 72.989C252.7 73.2423 252.51 73.5273 252.371 73.844C252.244 74.148 252.181 74.452 252.181 74.756H257.577ZM266.272 72.476H263.821V76.561C263.821 76.8143 263.828 77.0677 263.84 77.321C263.853 77.5617 263.897 77.7833 263.973 77.986C264.062 78.176 264.189 78.3343 264.353 78.461C264.531 78.575 264.784 78.632 265.113 78.632C265.316 78.632 265.525 78.613 265.74 78.575C265.956 78.537 266.152 78.4673 266.329 78.366V79.924C266.127 80.038 265.861 80.114 265.531 80.152C265.215 80.2027 264.968 80.228 264.79 80.228C264.132 80.228 263.619 80.1393 263.251 79.962C262.897 79.772 262.631 79.5313 262.453 79.24C262.289 78.9487 262.187 78.6257 262.149 78.271C262.124 77.9037 262.111 77.5363 262.111 77.169V72.476H260.135V70.994H262.111V68.467H263.821V70.994H266.272V72.476ZM268.517 72.096C268.998 71.6527 269.555 71.3233 270.189 71.108C270.822 70.88 271.455 70.766 272.089 70.766C272.747 70.766 273.311 70.8483 273.78 71.013C274.261 71.1777 274.654 71.3993 274.958 71.678C275.262 71.9567 275.483 72.2797 275.623 72.647C275.775 73.0017 275.851 73.3753 275.851 73.768V78.366C275.851 78.6827 275.857 78.974 275.87 79.24C275.882 79.506 275.901 79.7593 275.927 80H274.407C274.369 79.544 274.35 79.088 274.35 78.632H274.312C273.932 79.2147 273.482 79.6263 272.963 79.867C272.443 80.1077 271.842 80.228 271.158 80.228C270.74 80.228 270.341 80.171 269.961 80.057C269.581 79.943 269.245 79.772 268.954 79.544C268.675 79.316 268.453 79.0373 268.289 78.708C268.124 78.366 268.042 77.9733 268.042 77.53C268.042 76.9473 268.168 76.4597 268.422 76.067C268.688 75.6743 269.042 75.3577 269.486 75.117C269.942 74.8637 270.467 74.6863 271.063 74.585C271.671 74.471 272.317 74.414 273.001 74.414H274.255V74.034C274.255 73.806 274.21 73.578 274.122 73.35C274.033 73.122 273.9 72.9193 273.723 72.742C273.545 72.552 273.324 72.4063 273.058 72.305C272.792 72.191 272.475 72.134 272.108 72.134C271.778 72.134 271.487 72.1657 271.234 72.229C270.993 72.2923 270.771 72.3747 270.569 72.476C270.366 72.5647 270.182 72.6723 270.018 72.799C269.853 72.9257 269.695 73.046 269.543 73.16L268.517 72.096ZM273.343 75.668C272.937 75.668 272.519 75.6933 272.089 75.744C271.671 75.782 271.284 75.8643 270.93 75.991C270.588 76.1177 270.303 76.295 270.075 76.523C269.859 76.751 269.752 77.0423 269.752 77.397C269.752 77.9163 269.923 78.29 270.265 78.518C270.619 78.746 271.094 78.86 271.69 78.86C272.158 78.86 272.557 78.784 272.887 78.632C273.216 78.4673 273.482 78.2583 273.685 78.005C273.887 77.7517 274.033 77.473 274.122 77.169C274.21 76.8523 274.255 76.542 274.255 76.238V75.668H273.343ZM278.635 66.548H281.352L285.627 76.732H285.703L289.94 66.548H292.657V80H290.833V68.942H290.795L286.254 80H285.038L280.497 68.942H280.459V80H278.635V66.548ZM295.588 72.096C296.069 71.6527 296.626 71.3233 297.26 71.108C297.893 70.88 298.526 70.766 299.16 70.766C299.818 70.766 300.382 70.8483 300.851 71.013C301.332 71.1777 301.725 71.3993 302.029 71.678C302.333 71.9567 302.554 72.2797 302.694 72.647C302.846 73.0017 302.922 73.3753 302.922 73.768V78.366C302.922 78.6827 302.928 78.974 302.941 79.24C302.953 79.506 302.972 79.7593 302.998 80H301.478C301.44 79.544 301.421 79.088 301.421 78.632H301.383C301.003 79.2147 300.553 79.6263 300.034 79.867C299.514 80.1077 298.913 80.228 298.229 80.228C297.811 80.228 297.412 80.171 297.032 80.057C296.652 79.943 296.316 79.772 296.025 79.544C295.746 79.316 295.524 79.0373 295.36 78.708C295.195 78.366 295.113 77.9733 295.113 77.53C295.113 76.9473 295.239 76.4597 295.493 76.067C295.759 75.6743 296.113 75.3577 296.557 75.117C297.013 74.8637 297.538 74.6863 298.134 74.585C298.742 74.471 299.388 74.414 300.072 74.414H301.326V74.034C301.326 73.806 301.281 73.578 301.193 73.35C301.104 73.122 300.971 72.9193 300.794 72.742C300.616 72.552 300.395 72.4063 300.129 72.305C299.863 72.191 299.546 72.134 299.179 72.134C298.849 72.134 298.558 72.1657 298.305 72.229C298.064 72.2923 297.842 72.3747 297.64 72.476C297.437 72.5647 297.253 72.6723 297.089 72.799C296.924 72.9257 296.766 73.046 296.614 73.16L295.588 72.096ZM300.414 75.668C300.008 75.668 299.59 75.6933 299.16 75.744C298.742 75.782 298.355 75.8643 298.001 75.991C297.659 76.1177 297.374 76.295 297.146 76.523C296.93 76.751 296.823 77.0423 296.823 77.397C296.823 77.9163 296.994 78.29 297.336 78.518C297.69 78.746 298.165 78.86 298.761 78.86C299.229 78.86 299.628 78.784 299.958 78.632C300.287 78.4673 300.553 78.2583 300.756 78.005C300.958 77.7517 301.104 77.473 301.193 77.169C301.281 76.8523 301.326 76.542 301.326 76.238V75.668H300.414ZM310.19 73.255C309.988 73.0017 309.734 72.7927 309.43 72.628C309.139 72.4507 308.778 72.362 308.347 72.362C307.942 72.362 307.587 72.4507 307.283 72.628C306.992 72.7927 306.846 73.0397 306.846 73.369C306.846 73.635 306.929 73.8503 307.093 74.015C307.271 74.1797 307.473 74.3127 307.701 74.414C307.942 74.5153 308.195 74.5913 308.461 74.642C308.727 74.6927 308.955 74.737 309.145 74.775C309.513 74.8637 309.855 74.9713 310.171 75.098C310.501 75.2247 310.779 75.3893 311.007 75.592C311.248 75.7947 311.432 76.0417 311.558 76.333C311.698 76.6243 311.767 76.979 311.767 77.397C311.767 77.9037 311.66 78.3407 311.444 78.708C311.229 79.0627 310.95 79.354 310.608 79.582C310.266 79.81 309.874 79.9747 309.43 80.076C309 80.1773 308.563 80.228 308.119 80.228C307.372 80.228 306.713 80.114 306.143 79.886C305.586 79.658 305.086 79.24 304.642 78.632L305.934 77.568C306.213 77.8467 306.523 78.0937 306.865 78.309C307.207 78.5243 307.625 78.632 308.119 78.632C308.335 78.632 308.55 78.613 308.765 78.575C308.993 78.5243 309.19 78.4547 309.354 78.366C309.532 78.2647 309.671 78.1443 309.772 78.005C309.886 77.853 309.943 77.682 309.943 77.492C309.943 77.2387 309.861 77.0297 309.696 76.865C309.544 76.7003 309.354 76.5737 309.126 76.485C308.911 76.3837 308.677 76.3077 308.423 76.257C308.183 76.1937 307.967 76.143 307.777 76.105C307.41 76.0163 307.062 75.915 306.732 75.801C306.403 75.687 306.112 75.535 305.858 75.345C305.605 75.155 305.402 74.9143 305.25 74.623C305.098 74.3317 305.022 73.9707 305.022 73.54C305.022 73.0713 305.117 72.666 305.307 72.324C305.51 71.9693 305.77 71.678 306.086 71.45C306.416 71.222 306.783 71.051 307.188 70.937C307.606 70.823 308.024 70.766 308.442 70.766C309.05 70.766 309.633 70.88 310.19 71.108C310.748 71.336 311.191 71.716 311.52 72.248L310.19 73.255ZM313.845 65.636H315.555V74.908L319.431 71.013H321.806L317.607 75.098L322.167 80H319.735L315.555 75.326V80H313.845V65.636Z" fill="white"/>
</g>
<defs>
<filter id="filter0_dd" x="0" y="0" width="371" height="145" filterUnits="userSpaceOnUse" color-interpolation-filters="sRGB">
<feFlood flood-opacity="0" result="BackgroundImageFix"/>
<feColorMatrix in="SourceAlpha" type="matrix" values="0 0 0 0 0 0 0 0 0 0 0 0 0 0 0 0 0 0 127 0"/>
<feOffset dx="4" dy="4"/>
<feGaussianBlur stdDeviation="6"/>
<feColorMatrix type="matrix" values="0 0 0 0 0 0 0 0 0 0 0 0 0 0 0 0 0 0 0.75 0"/>
<feBlend mode="normal" in2="BackgroundImageFix" result="effect1_dropShadow"/>
<feColorMatrix in="SourceAlpha" type="matrix" values="0 0 0 0 0 0 0 0 0 0 0 0 0 0 0 0 0 0 127 0"/>
<feOffset dx="-4" dy="-4"/>
<feGaussianBlur stdDeviation="6"/>
<feColorMatrix type="matrix" values="0 0 0 0 0.7375 0 0 0 0 0.7375 0 0 0 0 0.7375 0 0 0 0.25 0"/>
<feBlend mode="normal" in2="effect1_dropShadow" result="effect2_dropShadow"/>
<feBlend mode="normal" in="SourceGraphic" in2="effect2_dropShadow" result="shape"/>
</filter>
<clipPath id="clip0">
<rect width="294.485" height="56.5" fill="white" transform="translate(38.2576 43.3936)"/>
</clipPath>
</defs>
</svg>
