<svg width="371" height="145" viewBox="0 0 371 145" fill="none" xmlns="http://www.w3.org/2000/svg">
<g filter="url(#filter0_dd)">
<rect x="16" y="16" width="339" height="113" rx="17" fill="#08133A"/>
</g>
<g clip-path="url(#clip0)">
<path d="M94.6863 45.106L72.1991 61.7449L76.3808 51.939L94.6863 45.106Z" fill="#E17726" stroke="#E17726" stroke-width="0.25" stroke-linecap="round" stroke-linejoin="round"/>
<path d="M42.8167 45.106L65.1036 61.9002L61.1222 51.939L42.8167 45.106Z" fill="#E27625" stroke="#E27625" stroke-width="0.25" stroke-linecap="round" stroke-linejoin="round"/>
<path d="M86.5894 83.686L80.6062 92.8264L93.4178 96.3539L97.0879 83.8858L86.5894 83.686Z" fill="#E27625" stroke="#E27625" stroke-width="0.25" stroke-linecap="round" stroke-linejoin="round"/>
<path d="M40.4366 83.8858L44.0844 96.3539L56.8738 92.8264L50.9128 83.686L40.4366 83.8858Z" fill="#E27625" stroke="#E27625" stroke-width="0.25" stroke-linecap="round" stroke-linejoin="round"/>
<path d="M56.1841 68.2451L52.6254 73.614L65.3035 74.1908L64.881 60.5469L56.1841 68.2451Z" fill="#E27625" stroke="#E27625" stroke-width="0.25" stroke-linecap="round" stroke-linejoin="round"/>
<path d="M81.3179 68.2456L72.4878 60.3921L72.1986 74.1913L84.8767 73.6145L81.3179 68.2456Z" fill="#E27625" stroke="#E27625" stroke-width="0.25" stroke-linecap="round" stroke-linejoin="round"/>
<path d="M56.8739 92.8265L64.5475 89.1216L57.9416 83.9746L56.8739 92.8265Z" fill="#E27625" stroke="#E27625" stroke-width="0.25" stroke-linecap="round" stroke-linejoin="round"/>
<path d="M72.9552 89.1216L80.6065 92.8265L79.5611 83.9746L72.9552 89.1216Z" fill="#E27625" stroke="#E27625" stroke-width="0.25" stroke-linecap="round" stroke-linejoin="round"/>
<path d="M80.6065 92.8269L72.9552 89.1221L73.5779 94.0915L73.5111 96.1991L80.6065 92.8269Z" fill="#D5BFB2" stroke="#D5BFB2" stroke-width="0.25" stroke-linecap="round" stroke-linejoin="round"/>
<path d="M56.8739 92.8269L63.9915 96.1991L63.947 94.0915L64.5475 89.1221L56.8739 92.8269Z" fill="#D5BFB2" stroke="#D5BFB2" stroke-width="0.25" stroke-linecap="round" stroke-linejoin="round"/>
<path d="M64.1248 80.6909L57.7634 78.8274L62.2564 76.7642L64.1248 80.6909Z" fill="#233447" stroke="#233447" stroke-width="0.25" stroke-linecap="round" stroke-linejoin="round"/>
<path d="M73.3778 80.6909L75.2462 76.7642L79.7615 78.8274L73.3778 80.6909Z" fill="#233447" stroke="#233447" stroke-width="0.25" stroke-linecap="round" stroke-linejoin="round"/>
<path d="M56.8738 92.8264L57.986 83.686L50.9128 83.8858L56.8738 92.8264Z" fill="#CC6228" stroke="#CC6228" stroke-width="0.25" stroke-linecap="round" stroke-linejoin="round"/>
<path d="M79.5165 83.686L80.6064 92.8264L86.5896 83.8858L79.5165 83.686Z" fill="#CC6228" stroke="#CC6228" stroke-width="0.25" stroke-linecap="round" stroke-linejoin="round"/>
<path d="M84.8767 73.6138L72.1986 74.1906L73.3774 80.691L75.2458 76.7641L79.761 78.8274L84.8767 73.6138Z" fill="#CC6228" stroke="#CC6228" stroke-width="0.25" stroke-linecap="round" stroke-linejoin="round"/>
<path d="M57.7634 78.8274L62.2563 76.7641L64.1247 80.691L65.3035 74.1906L52.6254 73.6138L57.7634 78.8274Z" fill="#CC6228" stroke="#CC6228" stroke-width="0.25" stroke-linecap="round" stroke-linejoin="round"/>
<path d="M52.6259 73.6138L57.9418 83.9743L57.7638 78.8274L52.6259 73.6138Z" fill="#E27525" stroke="#E27525" stroke-width="0.25" stroke-linecap="round" stroke-linejoin="round"/>
<path d="M79.7614 78.8274L79.5613 83.9743L84.8773 73.6138L79.7614 78.8274Z" fill="#E27525" stroke="#E27525" stroke-width="0.25" stroke-linecap="round" stroke-linejoin="round"/>
<path d="M65.3043 74.1909L64.1254 80.6913L65.6156 88.3673L65.9493 78.2509L65.3043 74.1909Z" fill="#E27525" stroke="#E27525" stroke-width="0.25" stroke-linecap="round" stroke-linejoin="round"/>
<path d="M72.199 74.1909L71.5762 78.2288L71.8876 88.3673L73.3778 80.6913L72.199 74.1909Z" fill="#E27525" stroke="#E27525" stroke-width="0.25" stroke-linecap="round" stroke-linejoin="round"/>
<path d="M73.3778 80.6913L71.8876 88.3672L72.9553 89.1216L79.5613 83.9746L79.7614 78.8276L73.3778 80.6913Z" fill="#F5841F" stroke="#F5841F" stroke-width="0.25" stroke-linecap="round" stroke-linejoin="round"/>
<path d="M57.7634 78.8276L57.9415 83.9746L64.5474 89.1216L65.615 88.3672L64.1248 80.6913L57.7634 78.8276Z" fill="#F5841F" stroke="#F5841F" stroke-width="0.25" stroke-linecap="round" stroke-linejoin="round"/>
<path d="M73.5113 96.1989L73.5779 94.0912L72.9997 93.6031H64.5031L63.947 94.0912L63.9915 96.1989L56.8739 92.8267L59.365 94.8677L64.4141 98.3508H73.0663L78.1376 94.8677L80.6065 92.8267L73.5113 96.1989Z" fill="#C0AC9D" stroke="#C0AC9D" stroke-width="0.25" stroke-linecap="round" stroke-linejoin="round"/>
<path d="M72.9551 89.1214L71.8874 88.3672H65.615L64.5475 89.1214L63.9469 94.091L64.503 93.6029H72.9996L73.5779 94.091L72.9551 89.1214Z" fill="#161616" stroke="#161616" stroke-width="0.25" stroke-linecap="round" stroke-linejoin="round"/>
<path d="M95.6424 62.8319L97.5331 53.6473L94.686 45.106L72.9552 61.1903L81.3182 68.2451L93.129 71.6839L95.7314 68.6445L94.5971 67.8236L96.3986 66.182L95.0197 65.1171L96.8213 63.7415L95.6424 62.8319Z" fill="#763E1A" stroke="#763E1A" stroke-width="0.25" stroke-linecap="round" stroke-linejoin="round"/>
<path d="M39.9697 53.6473L41.8826 62.8319L40.6592 63.7415L42.4831 65.1171L41.1041 66.182L42.9057 67.8236L41.7714 68.6445L44.3737 71.6839L56.1845 68.2451L64.5476 61.1903L42.8168 45.106L39.9697 53.6473Z" fill="#763E1A" stroke="#763E1A" stroke-width="0.25" stroke-linecap="round" stroke-linejoin="round"/>
<path d="M93.1292 71.6842L81.3184 68.2456L84.8772 73.6145L79.5613 83.9749L86.5899 83.8862H97.0883L93.1292 71.6842Z" fill="#F5841F" stroke="#F5841F" stroke-width="0.25" stroke-linecap="round" stroke-linejoin="round"/>
<path d="M56.1842 68.2456L44.3735 71.6842L40.4366 83.8862H50.9128L57.9414 83.9749L52.6255 73.6145L56.1842 68.2456Z" fill="#F5841F" stroke="#F5841F" stroke-width="0.25" stroke-linecap="round" stroke-linejoin="round"/>
<path d="M72.1988 74.1913L72.9551 61.1906L76.3803 51.9395H61.1221L64.5473 61.1906L65.3036 74.1913L65.5928 78.2733L65.615 88.3676H71.8874L71.9096 78.2733L72.1988 74.1913Z" fill="#F5841F" stroke="#F5841F" stroke-width="0.25" stroke-linecap="round" stroke-linejoin="round"/>
<path d="M136.213 78.436H140.208V80H134.275V68.185H136.213V78.436ZM145.892 80.153C145.008 80.153 144.209 79.9547 143.495 79.558C142.781 79.15 142.22 78.5833 141.812 77.858C141.404 77.1213 141.2 76.2713 141.2 75.308C141.2 74.356 141.409 73.5117 141.829 72.775C142.248 72.0383 142.82 71.4717 143.546 71.075C144.271 70.6783 145.081 70.48 145.977 70.48C146.872 70.48 147.682 70.6783 148.408 71.075C149.133 71.4717 149.705 72.0383 150.125 72.775C150.544 73.5117 150.754 74.356 150.754 75.308C150.754 76.26 150.538 77.1043 150.108 77.841C149.677 78.5777 149.088 79.15 148.34 79.558C147.603 79.9547 146.787 80.153 145.892 80.153ZM145.892 78.47C146.39 78.47 146.855 78.351 147.286 78.113C147.728 77.875 148.085 77.518 148.357 77.042C148.629 76.566 148.765 75.988 148.765 75.308C148.765 74.628 148.634 74.0557 148.374 73.591C148.113 73.115 147.767 72.758 147.337 72.52C146.906 72.282 146.441 72.163 145.943 72.163C145.444 72.163 144.979 72.282 144.549 72.52C144.129 72.758 143.795 73.115 143.546 73.591C143.296 74.0557 143.172 74.628 143.172 75.308C143.172 76.3167 143.427 77.0987 143.937 77.654C144.458 78.198 145.11 78.47 145.892 78.47ZM156.444 70.48C157.169 70.48 157.809 70.6273 158.365 70.922C158.931 71.2053 159.373 71.5623 159.691 71.993V70.633H161.646V80.153C161.646 81.0143 161.464 81.7793 161.102 82.448C160.739 83.128 160.212 83.6607 159.521 84.046C158.841 84.4313 158.025 84.624 157.073 84.624C155.803 84.624 154.749 84.3237 153.911 83.723C153.072 83.1337 152.596 82.329 152.483 81.309H154.404C154.551 81.7963 154.863 82.1873 155.339 82.482C155.826 82.788 156.404 82.941 157.073 82.941C157.855 82.941 158.484 82.703 158.96 82.227C159.447 81.751 159.691 81.0597 159.691 80.153V78.589C159.362 79.031 158.914 79.405 158.348 79.711C157.792 80.0057 157.158 80.153 156.444 80.153C155.628 80.153 154.88 79.949 154.2 79.541C153.531 79.1217 152.998 78.5437 152.602 77.807C152.216 77.059 152.024 76.2147 152.024 75.274C152.024 74.3333 152.216 73.5003 152.602 72.775C152.998 72.0497 153.531 71.4887 154.2 71.092C154.88 70.684 155.628 70.48 156.444 70.48ZM159.691 75.308C159.691 74.662 159.555 74.101 159.283 73.625C159.022 73.149 158.676 72.7863 158.246 72.537C157.815 72.2877 157.35 72.163 156.852 72.163C156.353 72.163 155.888 72.2877 155.458 72.537C155.027 72.775 154.676 73.132 154.404 73.608C154.143 74.0727 154.013 74.628 154.013 75.274C154.013 75.92 154.143 76.4867 154.404 76.974C154.676 77.4613 155.027 77.8353 155.458 78.096C155.9 78.3453 156.364 78.47 156.852 78.47C157.35 78.47 157.815 78.3453 158.246 78.096C158.676 77.8467 159.022 77.484 159.283 77.008C159.555 76.5207 159.691 75.954 159.691 75.308ZM165.177 69.392C164.826 69.392 164.531 69.273 164.293 69.035C164.055 68.797 163.936 68.5023 163.936 68.151C163.936 67.7997 164.055 67.505 164.293 67.267C164.531 67.029 164.826 66.91 165.177 66.91C165.517 66.91 165.806 67.029 166.044 67.267C166.282 67.505 166.401 67.7997 166.401 68.151C166.401 68.5023 166.282 68.797 166.044 69.035C165.806 69.273 165.517 69.392 165.177 69.392ZM166.129 70.633V80H164.191V70.633H166.129ZM173.399 70.48C174.136 70.48 174.793 70.633 175.371 70.939C175.961 71.245 176.42 71.6983 176.748 72.299C177.077 72.8997 177.241 73.625 177.241 74.475V80H175.32V74.764C175.32 73.9253 175.111 73.285 174.691 72.843C174.272 72.3897 173.7 72.163 172.974 72.163C172.249 72.163 171.671 72.3897 171.24 72.843C170.821 73.285 170.611 73.9253 170.611 74.764V80H168.673V70.633H170.611V71.704C170.929 71.3187 171.331 71.0183 171.818 70.803C172.317 70.5877 172.844 70.48 173.399 70.48ZM199.514 68.185L196.012 80H193.819L191.337 71.058L188.702 80L186.526 80.017L183.177 68.185H185.234L187.682 77.807L190.334 68.185H192.51L194.975 77.756L197.44 68.185H199.514ZM202.099 69.392C201.748 69.392 201.453 69.273 201.215 69.035C200.977 68.797 200.858 68.5023 200.858 68.151C200.858 67.7997 200.977 67.505 201.215 67.267C201.453 67.029 201.748 66.91 202.099 66.91C202.439 66.91 202.728 67.029 202.966 67.267C203.204 67.505 203.323 67.7997 203.323 68.151C203.323 68.5023 203.204 68.797 202.966 69.035C202.728 69.273 202.439 69.392 202.099 69.392ZM203.051 70.633V80H201.113V70.633H203.051ZM207.856 72.214V77.399C207.856 77.7503 207.936 78.0053 208.094 78.164C208.264 78.3113 208.548 78.385 208.944 78.385H210.134V80H208.604C207.732 80 207.063 79.796 206.598 79.388C206.134 78.98 205.901 78.317 205.901 77.399V72.214H204.796V70.633H205.901V68.304H207.856V70.633H210.134V72.214H207.856ZM216.766 70.48C217.48 70.48 218.114 70.633 218.67 70.939C219.236 71.245 219.678 71.6983 219.996 72.299C220.324 72.8997 220.489 73.625 220.489 74.475V80H218.568V74.764C218.568 73.9253 218.358 73.285 217.939 72.843C217.519 72.3897 216.947 72.163 216.222 72.163C215.496 72.163 214.918 72.3897 214.488 72.843C214.068 73.285 213.859 73.9253 213.859 74.764V80H211.921V67.42H213.859V71.721C214.187 71.3243 214.601 71.0183 215.1 70.803C215.61 70.5877 216.165 70.48 216.766 70.48ZM239.821 68.185V80H237.883V71.908L234.279 80H232.936L229.315 71.908V80H227.377V68.185H229.468L233.616 77.45L237.747 68.185H239.821ZM250.953 75.087C250.953 75.4383 250.93 75.7557 250.885 76.039H243.728C243.784 76.787 244.062 77.3877 244.561 77.841C245.059 78.2943 245.671 78.521 246.397 78.521C247.439 78.521 248.176 78.0847 248.607 77.212H250.698C250.414 78.0733 249.899 78.7817 249.151 79.337C248.414 79.881 247.496 80.153 246.397 80.153C245.501 80.153 244.697 79.9547 243.983 79.558C243.28 79.15 242.725 78.5833 242.317 77.858C241.92 77.1213 241.722 76.2713 241.722 75.308C241.722 74.3447 241.914 73.5003 242.3 72.775C242.696 72.0383 243.246 71.4717 243.949 71.075C244.663 70.6783 245.479 70.48 246.397 70.48C247.281 70.48 248.068 70.6727 248.76 71.058C249.451 71.4433 249.989 71.9873 250.375 72.69C250.76 73.3813 250.953 74.1803 250.953 75.087ZM248.93 74.475C248.918 73.761 248.663 73.1887 248.165 72.758C247.666 72.3273 247.048 72.112 246.312 72.112C245.643 72.112 245.071 72.3273 244.595 72.758C244.119 73.1773 243.835 73.7497 243.745 74.475H248.93ZM255.121 72.214V77.399C255.121 77.7503 255.2 78.0053 255.359 78.164C255.529 78.3113 255.812 78.385 256.209 78.385H257.399V80H255.869C254.996 80 254.328 79.796 253.863 79.388C253.398 78.98 253.166 78.317 253.166 77.399V72.214H252.061V70.633H253.166V68.304H255.121V70.633H257.399V72.214H255.121ZM258.539 75.274C258.539 74.3333 258.732 73.5003 259.117 72.775C259.514 72.0497 260.046 71.4887 260.715 71.092C261.395 70.684 262.143 70.48 262.959 70.48C263.696 70.48 264.336 70.6273 264.88 70.922C265.435 71.2053 265.877 71.5623 266.206 71.993V70.633H268.161V80H266.206V78.606C265.877 79.048 265.43 79.4163 264.863 79.711C264.296 80.0057 263.65 80.153 262.925 80.153C262.12 80.153 261.384 79.949 260.715 79.541C260.046 79.1217 259.514 78.5437 259.117 77.807C258.732 77.059 258.539 76.2147 258.539 75.274ZM266.206 75.308C266.206 74.662 266.07 74.101 265.798 73.625C265.537 73.149 265.192 72.7863 264.761 72.537C264.33 72.2877 263.866 72.163 263.367 72.163C262.868 72.163 262.404 72.2877 261.973 72.537C261.542 72.775 261.191 73.132 260.919 73.608C260.658 74.0727 260.528 74.628 260.528 75.274C260.528 75.92 260.658 76.4867 260.919 76.974C261.191 77.4613 261.542 77.8353 261.973 78.096C262.415 78.3453 262.88 78.47 263.367 78.47C263.866 78.47 264.33 78.3453 264.761 78.096C265.192 77.8467 265.537 77.484 265.798 77.008C266.07 76.5207 266.206 75.954 266.206 75.308ZM283.151 68.185V80H281.213V71.908L277.609 80H276.266L272.645 71.908V80H270.707V68.185H272.798L276.946 77.45L281.077 68.185H283.151ZM285.052 75.274C285.052 74.3333 285.245 73.5003 285.63 72.775C286.027 72.0497 286.559 71.4887 287.228 71.092C287.908 70.684 288.656 70.48 289.472 70.48C290.209 70.48 290.849 70.6273 291.393 70.922C291.948 71.2053 292.39 71.5623 292.719 71.993V70.633H294.674V80H292.719V78.606C292.39 79.048 291.943 79.4163 291.376 79.711C290.809 80.0057 290.163 80.153 289.438 80.153C288.633 80.153 287.897 79.949 287.228 79.541C286.559 79.1217 286.027 78.5437 285.63 77.807C285.245 77.059 285.052 76.2147 285.052 75.274ZM292.719 75.308C292.719 74.662 292.583 74.101 292.311 73.625C292.05 73.149 291.705 72.7863 291.274 72.537C290.843 72.2877 290.379 72.163 289.88 72.163C289.381 72.163 288.917 72.2877 288.486 72.537C288.055 72.775 287.704 73.132 287.432 73.608C287.171 74.0727 287.041 74.628 287.041 75.274C287.041 75.92 287.171 76.4867 287.432 76.974C287.704 77.4613 288.055 77.8353 288.486 78.096C288.928 78.3453 289.393 78.47 289.88 78.47C290.379 78.47 290.843 78.3453 291.274 78.096C291.705 77.8467 292.05 77.484 292.311 77.008C292.583 76.5207 292.719 75.954 292.719 75.308ZM300.619 80.153C299.883 80.153 299.22 80.0227 298.63 79.762C298.052 79.49 297.593 79.1273 297.253 78.674C296.913 78.2093 296.732 77.6937 296.709 77.127H298.715C298.749 77.5237 298.936 77.858 299.276 78.13C299.628 78.3907 300.064 78.521 300.585 78.521C301.129 78.521 301.549 78.419 301.843 78.215C302.149 77.9997 302.302 77.7277 302.302 77.399C302.302 77.0477 302.132 76.787 301.792 76.617C301.464 76.447 300.937 76.26 300.211 76.056C299.509 75.8633 298.936 75.6763 298.494 75.495C298.052 75.3137 297.667 75.036 297.338 74.662C297.021 74.288 296.862 73.795 296.862 73.183C296.862 72.6843 297.01 72.231 297.304 71.823C297.599 71.4037 298.018 71.075 298.562 70.837C299.118 70.599 299.752 70.48 300.466 70.48C301.532 70.48 302.387 70.752 303.033 71.296C303.691 71.8287 304.042 72.5597 304.087 73.489H302.149C302.115 73.0697 301.945 72.7353 301.639 72.486C301.333 72.2367 300.92 72.112 300.398 72.112C299.888 72.112 299.497 72.2083 299.225 72.401C298.953 72.5937 298.817 72.8487 298.817 73.166C298.817 73.4153 298.908 73.625 299.089 73.795C299.271 73.965 299.492 74.101 299.752 74.203C300.013 74.2937 300.398 74.4127 300.908 74.56C301.588 74.7413 302.144 74.9283 302.574 75.121C303.016 75.3023 303.396 75.5743 303.713 75.937C304.031 76.2997 304.195 76.7813 304.206 77.382C304.206 77.9147 304.059 78.3907 303.764 78.81C303.47 79.2293 303.05 79.558 302.506 79.796C301.974 80.034 301.345 80.153 300.619 80.153ZM310.006 75.325L314.324 80H311.706L308.238 75.971V80H306.3V67.42H308.238V74.73L311.638 70.633H314.324L310.006 75.325Z" fill="white"/>
</g>
<defs>
<filter id="filter0_dd" x="0" y="0" width="371" height="145" filterUnits="userSpaceOnUse" color-interpolation-filters="sRGB">
<feFlood flood-opacity="0" result="BackgroundImageFix"/>
<feColorMatrix in="SourceAlpha" type="matrix" values="0 0 0 0 0 0 0 0 0 0 0 0 0 0 0 0 0 0 127 0"/>
<feOffset dx="4" dy="4"/>
<feGaussianBlur stdDeviation="6"/>
<feColorMatrix type="matrix" values="0 0 0 0 0 0 0 0 0 0 0 0 0 0 0 0 0 0 0.75 0"/>
<feBlend mode="normal" in2="BackgroundImageFix" result="effect1_dropShadow"/>
<feColorMatrix in="SourceAlpha" type="matrix" values="0 0 0 0 0 0 0 0 0 0 0 0 0 0 0 0 0 0 127 0"/>
<feOffset dx="-4" dy="-4"/>
<feGaussianBlur stdDeviation="6"/>
<feColorMatrix type="matrix" values="0 0 0 0 0.7375 0 0 0 0 0.7375 0 0 0 0 0.7375 0 0 0 0.25 0"/>
<feBlend mode="normal" in2="effect1_dropShadow" result="effect2_dropShadow"/>
<feBlend mode="normal" in="SourceGraphic" in2="effect2_dropShadow" result="shape"/>
</filter>
<clipPath id="clip0">
<rect width="294.485" height="56.5" fill="white" transform="translate(38.2576 43.394)"/>
</clipPath>
</defs>
</svg>
